<svg id="Lager_1" data-name="Lager 1" xmlns="http://www.w3.org/2000/svg" viewBox="0 0 84.88 85.04"><defs><style>.cls-1{fill:#1b5a92;}.cls-2{fill:#575756;}</style></defs><title>symbol</title><path class="cls-1" d="M20.43,26.31l-.05,0a.06.06,0,0,1,.05,0h0c10.19-3.74,23.88-5.34,38.71-3.94-6-4.82-15.22-8.76-25.92-10.56-10.86-1.83-21.1-.93-28.4,1.75h0l0,0C3.64,21.2,4.77,31.43,8.68,41.71S18.24,60.13,24.15,65.1C19.86,50.81,18.76,37,20.43,26.31Z" transform="translate(-4.38 -4.13)"/><path class="cls-2" d="M70.36,22.92l0,0s0,0,0,0h0c-1.85,10.7-7.31,23.35-15.94,35.51,7.18-2.81,15.2-8.81,22.11-17.17S87.92,23.48,89.24,15.82h0a0,0,0,0,1,0,0h0C83.17,10.94,73.75,6.79,62.88,5s-20.74-.93-28,1.71C49.42,10.18,61.89,16.09,70.36,22.92Z" transform="translate(-4.38 -4.13)"/><path class="cls-1" d="M48.4,69.24l0,.06s0,0,0,0h0v0c-8.34-7-16.57-18-22.79-31.56-1.15,7.62,0,17.56,3.82,27.73s9.75,18.74,15.71,23.71h0l0,0v0c7.24-2.81,15.53-8.9,22.48-17.44S78.79,54.21,80.13,46.6C69.89,57.47,58.53,65.31,48.4,69.24Z" transform="translate(-4.38 -4.13)"/></svg>