<svg id="Lager_1" data-name="Lager 1" xmlns="http://www.w3.org/2000/svg" viewBox="0 0 341.23 85.04"><defs><style>.cls-1{fill:#1b5a92;}.cls-2{fill:#575756;}</style></defs><title>litsec</title><path class="cls-1" d="M117.61,27.17h3.79V61.44H136V65.1H117.61Z" transform="translate(-4.38 -4.13)"/><path class="cls-1" d="M157.31,27.17h3.79V65.1h-3.79Z" transform="translate(-4.38 -4.13)"/><path class="cls-1" d="M181.87,30.88V27.17h20.79v3.71H194.2V65.1h-3.87V30.88Z" transform="translate(-4.38 -4.13)"/><path class="cls-1" d="M220.05,58l3.23-1.94q3.41,6.27,7.86,6.27a7.6,7.6,0,0,0,3.59-.89,6.34,6.34,0,0,0,2.55-2.39,6.19,6.19,0,0,0,.88-3.17,6.43,6.43,0,0,0-1.29-3.74,31.49,31.49,0,0,0-6.5-6.09,33.14,33.14,0,0,1-5.91-5.18,9.48,9.48,0,0,1-2-5.8,8.79,8.79,0,0,1,1.19-4.51A8.49,8.49,0,0,1,227,27.38a9.62,9.62,0,0,1,4.68-1.17,9.89,9.89,0,0,1,5,1.33,16.93,16.93,0,0,1,4.94,4.89l-3.09,2.34A15.17,15.17,0,0,0,234.87,31a6.31,6.31,0,0,0-3.29-.9,5.23,5.23,0,0,0-3.75,1.39A4.58,4.58,0,0,0,226.37,35a5.73,5.73,0,0,0,.52,2.4,8.69,8.69,0,0,0,1.88,2.53c.5.48,2.13,1.75,4.9,3.79a27.61,27.61,0,0,1,6.76,6.47,10.46,10.46,0,0,1,1.83,5.7A9.68,9.68,0,0,1,239.12,63a10.5,10.5,0,0,1-7.62,3.05,11.16,11.16,0,0,1-6.26-1.85A16.86,16.86,0,0,1,220.05,58Z" transform="translate(-4.38 -4.13)"/><path class="cls-1" d="M266.15,27.17h21.74v3.71H269.94V42.77h17.79v3.71H269.94V61.39h17.79V65.1H266.15Z" transform="translate(-4.38 -4.13)"/><path class="cls-1" d="M345.62,34.21l-3,2.29a16.37,16.37,0,0,0-5.94-4.89A17.36,17.36,0,0,0,329.06,30a16.87,16.87,0,0,0-8.41,2.18,15.53,15.53,0,0,0-6,5.85,16.2,16.2,0,0,0-2.13,8.27,15.49,15.49,0,0,0,4.76,11.58,16.5,16.5,0,0,0,12,4.64,16.87,16.87,0,0,0,13.33-6.24l3,2.27a19.17,19.17,0,0,1-7.08,5.58,22.16,22.16,0,0,1-9.48,2q-10,0-15.71-6.63a20,20,0,0,1-4.82-13.52,18.79,18.79,0,0,1,5.84-14A20.15,20.15,0,0,1,329,26.21a21.47,21.47,0,0,1,9.59,2.1A18.63,18.63,0,0,1,345.62,34.21Z" transform="translate(-4.38 -4.13)"/><path class="cls-1" d="M20.43,26.31l-.05,0a.06.06,0,0,1,.05,0h0c10.19-3.74,23.88-5.34,38.71-3.94-6-4.82-15.22-8.76-25.92-10.56-10.86-1.83-21.1-.93-28.4,1.75h0l0,0C3.64,21.2,4.77,31.43,8.68,41.71S18.24,60.13,24.15,65.1C19.86,50.81,18.76,37,20.43,26.31Z" transform="translate(-4.38 -4.13)"/><path class="cls-2" d="M70.36,22.92l0,0s0,0,0,0h0c-1.85,10.7-7.31,23.35-15.94,35.51,7.18-2.81,15.2-8.81,22.11-17.17S87.92,23.48,89.24,15.82h0a0,0,0,0,1,0,0h0C83.17,10.94,73.75,6.79,62.88,5s-20.74-.93-28,1.71C49.42,10.18,61.89,16.09,70.36,22.92Z" transform="translate(-4.38 -4.13)"/><path class="cls-1" d="M48.4,69.24l0,.06s0,0,0,0h0v0c-8.34-7-16.57-18-22.79-31.56-1.15,7.62,0,17.56,3.82,27.73s9.75,18.74,15.71,23.71h0l0,0v0c7.24-2.81,15.53-8.9,22.48-17.44S78.79,54.21,80.13,46.6C69.89,57.47,58.53,65.31,48.4,69.24Z" transform="translate(-4.38 -4.13)"/></svg>