<?xml version="1.0" encoding="utf-8"?>
<!-- Generator: Adobe Illustrator 22.1.0, SVG Export Plug-In . SVG Version: 6.00 Build 0)  -->
<svg version="1.1" id="Layer_1" xmlns="http://www.w3.org/2000/svg" xmlns:xlink="http://www.w3.org/1999/xlink" x="0px" y="0px"
	 viewBox="0 0 256 256" style="enable-background:new 0 0 256 256;" xml:space="preserve">
<style type="text/css">
	.st0{fill:#FCD405;}
	.st1{fill:#145798;stroke:#145798;stroke-width:6;stroke-miterlimit:10;}
</style>
<title>sweden-connect-farg</title>
<desc>Created with Sketch.</desc>
<path id="Fill-14_1_" class="st0" d="M256,128c0,70.7-57.3,128-128,128S0,198.7,0,128S57.3,0,128,0S256,57.3,256,128z"/>
<g>
	<path class="st1" d="M107.6,130.7l-4.9-3.8c7.3-8.1,14-13.8,20.1-17.3c6.1-3.4,11.2-5.1,15.5-5.1c2.3,0,4.1,0.5,5.4,1.5
		c1.2,1,1.9,2.4,1.9,4.2c0,2.1-2.4,11.2-7.2,27.1c-7.8,26.1-11.7,41.8-11.7,47.2c0,1,0.3,1.9,0.8,2.6c0.5,0.7,1.1,1,1.7,1
		c2.4,0,8.4-4.6,18.1-13.7l4.3,4.2c-10.1,9.5-17.4,15.6-22.1,18.2c-4.6,2.6-8.4,4-11.4,4c-2.6,0-4.6-0.8-6.1-2.4
		c-1.5-1.6-2.3-3.9-2.3-6.7c0-9.2,5.5-31.7,16.5-67.4c0.5-1.7,0.8-3.2,0.8-4.5c0-1.5-0.7-2.2-2-2.2c-1.5,0-3.1,0.6-5,1.8
		C118.3,120.7,114.1,124.4,107.6,130.7z M151,57.7c2.3,0,4.2,0.8,5.6,2.3c1.5,1.5,2.2,3.4,2.2,5.8c0,3.2-1.1,6.1-3.4,8.5
		c-2.2,2.5-4.8,3.7-7.6,3.7c-2.2,0-4-0.8-5.5-2.3c-1.5-1.5-2.2-3.6-2.2-6.1c0-3.3,1.1-6.1,3.2-8.4C145.5,58.9,148,57.7,151,57.7z"/>
</g>
</svg>
